<?xml version="1.0" encoding="iso-8859-1"?>
<!-- Generator: Adobe Illustrator 19.0.0, SVG Export Plug-In . SVG Version: 6.00 Build 0)  -->
<svg version="1.1" id="Layer_1" xmlns="http://www.w3.org/2000/svg" xmlns:xlink="http://www.w3.org/1999/xlink" x="0px" y="0px"
	 viewBox="0 0 512 512" style="enable-background:new 0 0 512 512;" xml:space="preserve">
<g>
	<g>
		<path d="M507.155,22.327c-3.011-1.858-6.769-2.024-9.931-0.435L256,143.005L14.776,21.893c-3.162-1.587-6.919-1.422-9.931,0.435
			C1.833,24.185,0,27.47,0,31.008v133.61c0,3.857,2.175,7.384,5.623,9.115l245.801,123.41c1.44,0.723,3.008,1.084,4.576,1.084
			c1.569,0,3.136-0.362,4.576-1.084l245.801-123.41c3.447-1.731,5.623-5.258,5.623-9.115V31.008
			C512,27.47,510.166,24.184,507.155,22.327z M491.602,158.325L256,276.615L20.398,158.325V47.541l231.025,115.991
			c2.88,1.446,6.273,1.446,9.153,0L491.602,47.541V158.325z"/>
	</g>
</g>
<g>
	<g>
		<path d="M507.155,215.293c-3.011-1.858-6.769-2.023-9.931-0.434L256,335.971L14.776,214.858c-3.162-1.587-6.919-1.422-9.931,0.435
			C1.833,217.151,0,220.435,0,223.974v133.61c0,3.857,2.175,7.384,5.623,9.115l245.801,123.41c1.44,0.723,3.008,1.084,4.576,1.084
			c1.569,0,3.136-0.362,4.576-1.084l245.801-123.41c3.447-1.731,5.623-5.258,5.623-9.115v-133.61
			C512,220.435,510.166,217.15,507.155,215.293z M491.602,351.291L256,469.581L20.398,351.291V240.506l231.025,115.991
			c2.88,1.446,6.273,1.446,9.153,0l231.025-115.991V351.291z"/>
	</g>
</g>
<g>
	<g>
		<path d="M429.659,354.027c-2.527-5.033-8.657-7.068-13.69-4.54l-6.456,3.241c-5.034,2.528-7.067,8.657-4.54,13.691
			c1.791,3.566,5.387,5.626,9.123,5.626c1.538,0,3.1-0.349,4.567-1.086l6.456-3.241C430.153,365.19,432.186,359.06,429.659,354.027z
			"/>
	</g>
</g>
<g>
	<g>
		<path d="M390.565,373.654c-2.528-5.033-8.658-7.065-13.691-4.538l-125.45,62.985c-5.034,2.527-7.066,8.657-4.539,13.691
			c1.791,3.566,5.388,5.625,9.123,5.625c1.538,0,3.1-0.349,4.568-1.087l125.45-62.985
			C391.061,384.818,393.093,378.688,390.565,373.654z"/>
	</g>
</g>
<g>
</g>
<g>
</g>
<g>
</g>
<g>
</g>
<g>
</g>
<g>
</g>
<g>
</g>
<g>
</g>
<g>
</g>
<g>
</g>
<g>
</g>
<g>
</g>
<g>
</g>
<g>
</g>
<g>
</g>
</svg>
